<?xml version="1.0" encoding="UTF-8" standalone="no"?>
<svg
   xmlns:dc="http://purl.org/dc/elements/1.1/"
   xmlns:cc="http://creativecommons.org/ns#"
   xmlns:rdf="http://www.w3.org/1999/02/22-rdf-syntax-ns#"
   xmlns:svg="http://www.w3.org/2000/svg"
   xmlns="http://www.w3.org/2000/svg"
   viewBox="0 0 594.66669 144"
   height="144"
   width="594.66669"
   xml:space="preserve"
   id="svg2"
   version="1.1"><metadata
     id="metadata8"><rdf:RDF><cc:Work
         rdf:about=""><dc:format>image/svg+xml</dc:format><dc:type
           rdf:resource="http://purl.org/dc/dcmitype/StillImage" /></cc:Work></rdf:RDF></metadata><defs
     id="defs6" /><g
     transform="matrix(1.3333333,0,0,-1.3333333,0,144)"
     id="g10"><g
       transform="scale(0.1)"
       id="g12"><path
         id="path14"
         style="fill:#ffffff;fill-opacity:1;fill-rule:evenodd;stroke:none"
         d="M 46.5352,1033.91 H 256.301 v 45.35 H 1.17969 V 824.145 H 46.5352 v 209.765" /><path
         id="path16"
         style="fill:#ffffff;fill-opacity:1;fill-rule:evenodd;stroke:none"
         d="M 46.5352,47.4492 H 256.301 V 2.09766 H 1.17969 V 257.215 H 46.5352 V 47.4492" /><path
         id="path18"
         style="fill:#ffffff;fill-opacity:1;fill-rule:evenodd;stroke:none"
         d="m 4406.22,1033.91 h -209.76 v 45.35 h 255.11 V 824.145 h -45.35 v 209.765" /><path
         id="path20"
         style="fill:#ffffff;fill-opacity:1;fill-rule:evenodd;stroke:none"
         d="M 4406.22,47.4492 H 4196.46 V 2.09766 h 255.11 V 257.215 h -45.35 V 47.4492" /><path
         id="path22"
         style="fill:#ef3221;fill-opacity:1;fill-rule:evenodd;stroke:none"
         d="m 4293.16,983.41 c 31.48,0 57,-25.519 57,-56.996 0,-31.48 -25.52,-57 -57,-57 -31.48,0 -57,25.52 -57,57 0,31.477 25.52,56.996 57,56.996" /><path
         id="path24"
         style="fill:#ffffff;fill-opacity:1;fill-rule:nonzero;stroke:none"
         d="m 1874.54,468.758 v 70.512 h 218.67 c 5.6,0 9.31,1.398 11.13,4.195 1.82,2.801 2.73,7.418 2.73,13.855 0,5.594 -1.05,9.582 -3.15,11.961 -2.1,2.379 -5.67,3.567 -10.71,3.567 h -138.5 c -26.59,0 -46.59,5.109 -60.03,15.32 -13.43,10.215 -20.14,24.414 -20.14,42.602 v 49.945 c 0,11.754 1.33,21.828 3.98,30.223 2.66,8.394 7.35,15.183 14.07,20.359 6.71,5.176 16.02,8.953 27.91,11.332 11.89,2.379 27.07,3.566 45.54,3.566 h 212.8 V 676.52 h -191.82 c -5.59,0 -9.23,-1.399 -10.91,-4.196 -1.68,-2.797 -2.52,-6.996 -2.52,-12.594 0,-5.593 1.12,-9.792 3.36,-12.589 2.24,-2.797 6.16,-4.2 11.75,-4.2 h 136.41 c 28.55,0 49.11,-5.738 61.71,-17.207 12.59,-11.472 18.89,-27.703 18.89,-48.687 v -41.973 c 0,-11.472 -1.48,-21.34 -4.41,-29.594 -2.94,-8.253 -7.84,-15.109 -14.69,-20.562 -6.86,-5.457 -15.81,-9.52 -26.87,-12.172 -11.05,-2.66 -24.69,-3.988 -40.92,-3.988 z m -1594.974,0 v 277.437 h 106.61 V 539.27 h 143.551 v -70.512 z m 277.86,0 V 746.195 H 663.199 V 468.758 Z m 250.578,0 c -19.867,0 -36.586,0.906 -50.16,2.726 -13.571,1.821 -24.555,5.176 -32.946,10.075 -8.394,4.898 -14.414,11.613 -18.05,20.144 -3.637,8.535 -5.457,19.656 -5.457,33.371 v 144.805 c 0,13.43 1.82,24.484 5.457,33.16 3.636,8.672 9.656,15.457 18.05,20.356 8.391,4.898 19.375,8.253 32.946,10.074 13.574,1.816 30.293,2.726 50.16,2.726 H 1021.23 V 675.684 H 838.227 c -11.196,0 -19.032,-1.539 -23.508,-4.618 -4.481,-3.082 -6.715,-7.836 -6.715,-14.273 v -98.637 c 0,-12.59 10.07,-18.886 30.223,-18.886 h 183.003 v -70.512 z m 248.476,0 v 277.437 h 329.07 V 675.684 H 1163.1 v -34.84 h 108.7 V 574.527 H 1163.1 V 539.27 h 222.45 v -70.512 z m 450.79,0 v 206.926 h -100.73 v 70.511 h 307.24 V 675.684 H 1613.46 V 468.758 Z m 820.16,0 v 206.926 h -100.74 v 70.511 h 307.24 V 675.684 H 2433.62 V 468.758 Z m 339.56,0 c -19.87,0 -36.59,0.906 -50.16,2.726 -13.57,1.821 -24.56,5.176 -32.95,10.075 -8.39,4.898 -14.41,11.613 -18.05,20.144 -3.63,8.535 -5.45,19.656 -5.45,33.371 v 211.121 h 106.19 V 558.156 c 0,-7.273 2.09,-12.242 6.29,-14.898 4.2,-2.656 12.46,-3.988 24.77,-3.988 h 76.39 c 12.31,0 20.5,1.332 24.55,3.988 4.06,2.656 6.09,7.625 6.09,14.898 v 188.039 h 105.35 V 535.074 c 0,-13.433 -1.75,-24.484 -5.24,-33.16 -3.5,-8.676 -9.38,-15.457 -17.63,-20.355 -8.26,-4.899 -19.17,-8.254 -32.74,-10.075 -13.57,-1.82 -30.29,-2.726 -50.16,-2.726 z m 282.06,0 v 277.437 h 225.39 c 19.59,0 36.17,-0.91 49.74,-2.726 13.57,-1.821 24.55,-5.11 32.95,-9.867 8.39,-4.754 14.48,-11.473 18.26,-20.145 3.77,-8.676 5.66,-19.867 5.66,-33.578 V 535.074 c 0,-13.715 -1.75,-24.836 -5.25,-33.371 -3.49,-8.531 -9.44,-15.246 -17.83,-20.144 -8.4,-4.899 -19.38,-8.254 -32.95,-10.075 -13.57,-1.82 -30.43,-2.726 -50.58,-2.726 z m 226.65,187.613 c 0,6.719 -1.96,11.613 -5.88,14.695 -3.91,3.079 -12.03,4.618 -24.34,4.618 h -90.24 V 539.27 h 90.24 c 20.15,0 30.22,6.296 30.22,18.886 z m 143.55,-187.613 v 277.437 h 105.77 V 468.758 Z m 249.74,0 c -19.87,0 -36.52,0.906 -49.95,2.726 -13.43,1.821 -24.27,5.106 -32.53,9.864 -8.25,4.757 -14.2,11.472 -17.84,20.144 -3.63,8.68 -5.46,19.867 -5.46,33.582 v 144.805 c 0,13.711 1.83,24.902 5.46,33.578 3.64,8.672 9.66,15.461 18.05,20.356 8.39,4.898 19.31,8.187 32.74,9.863 13.43,1.679 29.94,2.519 49.53,2.519 h 140.61 c 19.86,0 36.58,-0.84 50.15,-2.519 13.58,-1.676 24.56,-4.965 32.95,-9.863 8.4,-4.895 14.42,-11.684 18.05,-20.356 3.64,-8.676 5.46,-19.867 5.46,-33.578 V 535.074 c 0,-13.992 -1.82,-25.254 -5.46,-33.789 -3.63,-8.535 -9.65,-15.25 -18.05,-20.148 -8.39,-4.895 -19.37,-8.184 -32.95,-9.864 -13.57,-1.679 -30.29,-2.515 -50.15,-2.515 z m 141.87,188.035 c 0,7.277 -2.1,12.242 -6.3,14.902 -4.19,2.657 -12.45,3.989 -24.76,3.989 h -79.75 c -11.75,0 -19.87,-1.262 -24.35,-3.782 -4.47,-2.519 -6.71,-7.554 -6.71,-15.109 v -98.637 c 0,-6.996 1.96,-11.89 5.87,-14.691 3.92,-2.797 12.32,-4.195 25.19,-4.195 h 79.75 c 12.31,0 20.57,1.332 24.76,3.988 4.2,2.656 6.3,7.625 6.3,14.898 z m 136.83,-188.035 v 70.512 h 218.68 c 5.59,0 9.3,1.398 11.12,4.195 1.82,2.801 2.73,7.418 2.73,13.855 0,5.594 -1.05,9.582 -3.15,11.961 -2.1,2.379 -5.66,3.567 -10.7,3.567 h -138.51 c -26.59,0 -46.59,5.109 -60.02,15.32 -13.44,10.215 -20.15,24.414 -20.15,42.602 v 49.945 c 0,11.754 1.33,21.828 3.99,30.223 2.66,8.394 7.34,15.183 14.05,20.359 6.72,5.176 16.03,8.953 27.92,11.332 11.89,2.379 27.07,3.566 45.54,3.566 h 212.8 V 676.52 h -191.81 c -5.6,0 -9.23,-1.399 -10.91,-4.196 -1.68,-2.797 -2.52,-6.996 -2.52,-12.594 0,-5.593 1.12,-9.792 3.35,-12.589 2.24,-2.797 6.16,-4.2 11.76,-4.2 h 136.41 c 28.54,0 49.11,-5.738 61.69,-17.207 12.6,-11.472 18.9,-27.703 18.9,-48.687 v -41.973 c 0,-11.472 -1.47,-21.34 -4.41,-29.594 -2.94,-8.253 -7.84,-15.109 -14.69,-20.562 -6.86,-5.457 -15.81,-9.52 -26.87,-12.172 -11.05,-2.66 -24.69,-3.988 -40.92,-3.988 h -244.28" /><path
         id="path26"
         style="fill:#ffffff;fill-opacity:1;fill-rule:nonzero;stroke:none"
         d="m 317.953,334.109 -38.387,94.684 h 40.821 l 21.918,-60.305 22.633,60.305 h 37.531 l -38.965,-94.684 z m 1556.587,0 v 94.684 h 36.37 v -70.621 h 49 v -24.063 z m 267.21,0 v 94.684 h 36.1 v -94.684 z m 257.91,0 c -6.78,0 -12.49,0.309 -17.12,0.93 -4.63,0.621 -8.38,1.77 -11.24,3.438 -2.87,1.675 -4.92,3.964 -6.16,6.878 -1.25,2.911 -1.87,6.708 -1.87,11.387 v 49.418 c 0,4.586 0.62,8.356 1.87,11.317 1.24,2.961 3.29,5.277 6.16,6.945 2.86,1.672 6.61,2.816 11.24,3.437 4.63,0.621 10.34,0.934 17.12,0.934 h 72.76 v -24.066 h -62.45 c -3.82,0 -6.49,-0.524 -8.02,-1.575 -1.53,-1.05 -2.29,-2.675 -2.29,-4.871 v -33.66 c 0,-4.297 3.43,-6.449 10.31,-6.449 h 62.45 v -24.063 z m 257.19,0 v 94.684 h 112.29 v -24.066 h -75.91 V 392.84 h 37.09 v -22.633 h -37.09 v -12.035 h 75.91 v -24.063 z m 372.49,0 -41.97,45.411 V 334.109 H 2953 v 94.684 h 37.24 l 40.11,-47.988 v 47.988 h 34.52 v -94.684 z m 219.66,0 v 24.063 h 74.63 c 1.91,0 3.18,0.48 3.8,1.437 0.62,0.954 0.93,2.528 0.93,4.723 0,1.91 -0.36,3.273 -1.07,4.082 -0.72,0.816 -1.94,1.219 -3.66,1.219 h -47.27 c -9.07,0 -15.9,1.746 -20.48,5.226 -4.58,3.489 -6.88,8.336 -6.88,14.539 v 17.051 c 0,4.008 0.46,7.446 1.37,10.313 0.9,2.863 2.5,5.179 4.79,6.945 2.29,1.766 5.47,3.055 9.53,3.867 4.06,0.813 9.24,1.219 15.54,1.219 h 72.62 v -23.781 h -65.46 c -1.91,0 -3.15,-0.473 -3.72,-1.43 -0.58,-0.957 -0.86,-2.387 -0.86,-4.297 0,-1.91 0.38,-3.344 1.14,-4.297 0.77,-0.957 2.11,-1.433 4.01,-1.433 h 46.56 c 9.74,0 16.76,-1.957 21.05,-5.871 4.3,-3.914 6.45,-9.454 6.45,-16.618 v -14.324 c 0,-3.914 -0.5,-7.281 -1.5,-10.097 -1,-2.817 -2.68,-5.161 -5.02,-7.02 -2.34,-1.859 -5.39,-3.246 -9.16,-4.152 -3.78,-0.91 -8.43,-1.364 -13.97,-1.364 z m 296.87,0 v 94.684 h 36.1 v -94.684 z m 298.59,0 -41.97,45.411 v -45.411 h -34.38 v 94.684 h 37.24 l 40.11,-47.988 v 47.988 h 34.52 v -94.684 z m 257.47,0 c -6.88,0 -12.65,0.309 -17.33,0.93 -4.68,0.621 -8.42,1.793 -11.24,3.512 -2.82,1.719 -4.82,4.035 -6.02,6.945 -1.2,2.914 -1.79,6.664 -1.79,11.246 v 49.418 c 0,4.488 0.59,8.188 1.79,11.102 1.2,2.91 3.2,5.226 6.02,6.949 2.82,1.715 6.54,2.91 11.17,3.578 4.63,0.668 10.43,1.004 17.4,1.004 H 4179 v -24.066 h -66.75 c -4.49,0 -7.41,-0.5 -8.74,-1.5 -1.34,-1.004 -2.01,-2.7 -2.01,-5.086 v -33.52 c 0,-2.387 0.72,-4.058 2.15,-5.012 1.44,-0.957 4.3,-1.437 8.6,-1.437 h 31.94 v 11.75 h -31.66 v 23.633 H 4179 v -59.446 z m -3493.844,0 v 94.684 h 36.094 v -94.684 z m 247.441,0 v 94.684 h 76.922 c 6.684,0 12.34,-0.309 16.973,-0.93 4.633,-0.621 8.379,-1.742 11.246,-3.367 2.859,-1.621 4.937,-3.914 6.23,-6.875 1.29,-2.961 1.93,-6.781 1.93,-11.461 v -49.418 c 0,-4.679 -0.594,-8.476 -1.785,-11.387 -1.199,-2.914 -3.223,-5.203 -6.09,-6.878 -2.867,-1.668 -6.613,-2.817 -11.246,-3.438 -4.633,-0.621 -10.387,-0.93 -17.258,-0.93 z m 77.348,64.032 c 0,2.293 -0.664,3.961 -2.004,5.011 -1.336,1.051 -4.105,1.578 -8.308,1.578 h -30.797 v -46.554 h 30.797 c 6.878,0 10.312,2.148 10.312,6.445 z m 246.585,-64.032 v 94.684 h 112.3 V 404.73 h -75.92 v -11.89 h 37.11 v -22.633 h -37.11 v -12.031 h 75.92 v -24.067 z m 356.74,0 c -6.78,0 -12.46,0.309 -17.05,0.93 -4.58,0.621 -8.28,1.746 -11.1,3.367 -2.82,1.625 -4.84,3.918 -6.09,6.879 -1.24,2.957 -1.86,6.778 -1.86,11.457 v 49.418 c 0,4.68 0.62,8.5 1.86,11.461 1.25,2.961 3.3,5.277 6.17,6.949 2.86,1.668 6.58,2.793 11.17,3.364 4.58,0.574 10.22,0.859 16.9,0.859 h 47.99 c 6.77,0 12.48,-0.285 17.11,-0.859 4.63,-0.571 8.38,-1.696 11.24,-3.364 2.87,-1.672 4.92,-3.988 6.16,-6.949 1.25,-2.961 1.87,-6.781 1.87,-11.461 v -49.418 c 0,-4.773 -0.62,-8.617 -1.87,-11.531 -1.24,-2.91 -3.29,-5.203 -6.16,-6.875 -2.86,-1.672 -6.61,-2.793 -11.24,-3.367 -4.63,-0.571 -10.34,-0.86 -17.11,-0.86 z m 48.41,64.176 c 0,2.481 -0.71,4.176 -2.15,5.086 -1.42,0.906 -4.25,1.359 -8.44,1.359 h -27.22 c -4.01,0 -6.78,-0.429 -8.31,-1.289 -1.53,-0.859 -2.29,-2.582 -2.29,-5.156 v -33.664 c 0,-2.387 0.67,-4.058 2.01,-5.012 1.33,-0.957 4.2,-1.433 8.59,-1.433 h 27.22 c 4.19,0 7.02,0.453 8.44,1.363 1.44,0.906 2.15,2.602 2.15,5.082 v 33.664" /></g></g></svg>